<svg xmlns="http://www.w3.org/2000/svg" xmlns:xlink="http://www.w3.org/1999/xlink" width="512" zoomAndPan="magnify" viewBox="0 0 384 383.999986" height="512" preserveAspectRatio="xMidYMid meet" version="1.0"><defs><clipPath id="2efcd002fd"><path d="M 12 12 L 372 12 L 372 372 L 12 372 Z M 12 12 " clip-rule="nonzero"/></clipPath><clipPath id="f5c41932ab"><path d="M 48 12 L 336 12 C 355.882812 12 372 28.117188 372 48 L 372 336 C 372 355.882812 355.882812 372 336 372 L 48 372 C 28.117188 372 12 355.882812 12 336 L 12 48 C 12 28.117188 28.117188 12 48 12 Z M 48 12 " clip-rule="nonzero"/></clipPath><clipPath id="360f05dfad"><path d="M 124.5 113.074219 L 259.5 113.074219 L 259.5 270.75 L 124.5 270.75 Z M 124.5 113.074219 " clip-rule="nonzero"/></clipPath><clipPath id="86b93d4f25"><path d="M 192 270.75 L 124.5 210.589844 L 150.28125 113.25 L 233.71875 113.25 L 259.5 210.589844 Z M 192 270.75 " clip-rule="nonzero"/></clipPath><clipPath id="0b2a84e58a"><path d="M 0.5 0.0742188 L 135.5 0.0742188 L 135.5 157.75 L 0.5 157.75 Z M 0.5 0.0742188 " clip-rule="nonzero"/></clipPath><clipPath id="a911e02a5c"><path d="M 68 157.75 L 0.5 97.589844 L 26.28125 0.25 L 109.71875 0.25 L 135.5 97.589844 Z M 68 157.75 " clip-rule="nonzero"/></clipPath><clipPath id="f521dec4a8"><rect x="0" width="136" y="0" height="158"/></clipPath><clipPath id="036dc34456"><path d="M 214.5 79.328125 L 259.5 79.328125 L 259.5 124.328125 L 214.5 124.328125 Z M 214.5 79.328125 " clip-rule="nonzero"/></clipPath><clipPath id="e54d2458b6"><path d="M 237 79.328125 C 224.574219 79.328125 214.5 89.398438 214.5 101.828125 C 214.5 114.253906 224.574219 124.328125 237 124.328125 C 249.425781 124.328125 259.5 114.253906 259.5 101.828125 C 259.5 89.398438 249.425781 79.328125 237 79.328125 Z M 237 79.328125 " clip-rule="nonzero"/></clipPath><clipPath id="02d785b472"><path d="M 0.5 0.328125 L 45.5 0.328125 L 45.5 45.328125 L 0.5 45.328125 Z M 0.5 0.328125 " clip-rule="nonzero"/></clipPath><clipPath id="060d946f74"><path d="M 23 0.328125 C 10.574219 0.328125 0.5 10.398438 0.5 22.828125 C 0.5 35.253906 10.574219 45.328125 23 45.328125 C 35.425781 45.328125 45.5 35.253906 45.5 22.828125 C 45.5 10.398438 35.425781 0.328125 23 0.328125 Z M 23 0.328125 " clip-rule="nonzero"/></clipPath><clipPath id="cbd68b1966"><rect x="0" width="46" y="0" height="46"/></clipPath></defs><rect x="-38.4" width="460.8" fill="#ffffff" y="-38.399999" height="460.799983" fill-opacity="1"/><rect x="-38.4" width="460.8" fill="#14532d" y="-38.399999" height="460.799983" fill-opacity="1"/><g clip-path="url(#2efcd002fd)"><g clip-path="url(#f5c41932ab)"><path fill="#14532d" d="M 12 12 L 372 12 L 372 372 L 12 372 Z M 12 12 " fill-opacity="1" fill-rule="nonzero"/></g></g><g clip-path="url(#360f05dfad)"><g clip-path="url(#86b93d4f25)"><g transform="matrix(1, 0, 0, 1, 124, 113)"><g clip-path="url(#f521dec4a8)"><g clip-path="url(#0b2a84e58a)"><g clip-path="url(#a911e02a5c)"><path fill="#ffffff" d="M 135.5 157.75 L 0.5 157.75 L 0.5 0.0742188 L 135.5 0.0742188 Z M 135.5 157.75 " fill-opacity="1" fill-rule="nonzero"/></g></g></g></g></g></g><g clip-path="url(#036dc34456)"><g clip-path="url(#e54d2458b6)"><g transform="matrix(1, 0, 0, 1, 214, 79)"><g clip-path="url(#cbd68b1966)"><g clip-path="url(#02d785b472)"><g clip-path="url(#060d946f74)"><path fill="#4ade80" d="M 0.5 0.328125 L 45.5 0.328125 L 45.5 45.328125 L 0.5 45.328125 Z M 0.5 0.328125 " fill-opacity="1" fill-rule="nonzero"/></g></g></g></g></g></g></svg>