<svg xmlns="http://www.w3.org/2000/svg" viewBox="0 0 100 100" fill="none" role="img" aria-label="JADsynq seal mark">
  <circle cx="50" cy="50" r="40" stroke="currentColor" stroke-width="4"/>
  <g stroke="currentColor" stroke-width="3" stroke-linecap="round">
    <line x1="94" y1="50" x2="98" y2="50"/>
    <line x1="90.65" y1="66.84" x2="94.35" y2="68.37"/>
    <line x1="81.11" y1="81.11" x2="83.94" y2="83.94"/>
    <line x1="66.84" y1="90.65" x2="68.37" y2="94.35"/>
    <line x1="50" y1="94" x2="50" y2="98"/>
    <line x1="33.16" y1="90.65" x2="31.63" y2="94.35"/>
    <line x1="18.89" y1="81.11" x2="16.06" y2="83.94"/>
    <line x1="9.35" y1="66.84" x2="5.65" y2="68.37"/>
    <line x1="6" y1="50" x2="2" y2="50"/>
    <line x1="9.35" y1="33.16" x2="5.65" y2="31.63"/>
    <line x1="18.89" y1="18.89" x2="16.06" y2="16.06"/>
    <line x1="33.16" y1="9.35" x2="31.63" y2="5.65"/>
    <line x1="50" y1="6" x2="50" y2="2"/>
    <line x1="66.84" y1="9.35" x2="68.37" y2="5.65"/>
    <line x1="81.11" y1="18.89" x2="83.94" y2="16.06"/>
    <line x1="90.65" y1="33.16" x2="94.35" y2="31.63"/>
  </g>
  <path d="M58,30 L58,62 Q58,75 45,75 Q37,75 32,70" stroke="currentColor" stroke-width="8" stroke-linecap="round" stroke-linejoin="round"/>
</svg>
