<svg xmlns="http://www.w3.org/2000/svg" xmlns:xlink="http://www.w3.org/1999/xlink" width="1200" zoomAndPan="magnify" viewBox="0 0 900 1199.999942" height="1600" preserveAspectRatio="xMidYMid meet" version="1.0"><defs><g/><clipPath id="fb6062a475"><path d="M 0 0 L 900 0 L 900 1200 L 0 1200 Z M 0 0 " clip-rule="nonzero"/></clipPath><clipPath id="7fbcd3e5d6"><rect x="0" width="900" y="0" height="1200"/></clipPath><clipPath id="6ddd8d9faa"><path d="M 196.492188 550.765625 L 298.074219 550.765625 L 298.074219 669.414062 L 196.492188 669.414062 Z M 196.492188 550.765625 " clip-rule="nonzero"/></clipPath><clipPath id="bc5a562534"><path d="M 247.285156 669.414062 L 196.492188 624.144531 L 215.890625 550.898438 L 278.675781 550.898438 L 298.074219 624.144531 Z M 247.285156 669.414062 " clip-rule="nonzero"/></clipPath><clipPath id="c68e1413a6"><path d="M 0.492188 0.800781 L 102.074219 0.800781 L 102.074219 119.414062 L 0.492188 119.414062 Z M 0.492188 0.800781 " clip-rule="nonzero"/></clipPath><clipPath id="ac787ff28f"><path d="M 51.285156 119.414062 L 0.492188 74.144531 L 19.890625 0.898438 L 82.675781 0.898438 L 102.074219 74.144531 Z M 51.285156 119.414062 " clip-rule="nonzero"/></clipPath><clipPath id="597dd188b7"><rect x="0" width="103" y="0" height="120"/></clipPath><clipPath id="1b5b77ffe8"><path d="M 265.914062 530.582031 L 296.390625 530.582031 L 296.390625 561.058594 L 265.914062 561.058594 Z M 265.914062 530.582031 " clip-rule="nonzero"/></clipPath><clipPath id="b5b5c03aa2"><path d="M 281.152344 530.582031 C 272.734375 530.582031 265.914062 537.40625 265.914062 545.820312 C 265.914062 554.238281 272.734375 561.058594 281.152344 561.058594 C 289.566406 561.058594 296.390625 554.238281 296.390625 545.820312 C 296.390625 537.40625 289.566406 530.582031 281.152344 530.582031 Z M 281.152344 530.582031 " clip-rule="nonzero"/></clipPath><clipPath id="8819f9a5e0"><path d="M 0.914062 0.582031 L 31.390625 0.582031 L 31.390625 31.058594 L 0.914062 31.058594 Z M 0.914062 0.582031 " clip-rule="nonzero"/></clipPath><clipPath id="6d4baad4c6"><path d="M 16.152344 0.582031 C 7.734375 0.582031 0.914062 7.40625 0.914062 15.820312 C 0.914062 24.238281 7.734375 31.058594 16.152344 31.058594 C 24.566406 31.058594 31.390625 24.238281 31.390625 15.820312 C 31.390625 7.40625 24.566406 0.582031 16.152344 0.582031 Z M 16.152344 0.582031 " clip-rule="nonzero"/></clipPath><clipPath id="622fe248fc"><rect x="0" width="32" y="0" height="32"/></clipPath><clipPath id="fe215ef730"><rect x="0" width="385" y="0" height="98"/></clipPath></defs><rect x="-90" width="1080" fill="#ffffff" y="-119.999994" height="1439.999931" fill-opacity="1"/><rect x="-90" width="1080" fill="#ffffff" y="-119.999994" height="1439.999931" fill-opacity="1"/><g transform="matrix(1, 0, 0, 1, 0, -0.000000000000043846)"><g clip-path="url(#7fbcd3e5d6)"><g clip-path="url(#fb6062a475)"><rect x="-198" width="1296" fill="#000000" height="1727.999917" y="-263.999987" fill-opacity="1"/></g></g></g><g clip-path="url(#6ddd8d9faa)"><g clip-path="url(#bc5a562534)"><g transform="matrix(1, 0, 0, 1, 196, 550)"><g clip-path="url(#597dd188b7)"><g clip-path="url(#c68e1413a6)"><g clip-path="url(#ac787ff28f)"><path fill="#ffffff" d="M 102.074219 119.414062 L 0.492188 119.414062 L 0.492188 0.765625 L 102.074219 0.765625 Z M 102.074219 119.414062 " fill-opacity="1" fill-rule="nonzero"/></g></g></g></g></g></g><g clip-path="url(#1b5b77ffe8)"><g clip-path="url(#b5b5c03aa2)"><g transform="matrix(1, 0, 0, 1, 265, 530)"><g clip-path="url(#622fe248fc)"><g clip-path="url(#8819f9a5e0)"><g clip-path="url(#6d4baad4c6)"><path fill="#ffffff" d="M 0.914062 0.582031 L 31.390625 0.582031 L 31.390625 31.058594 L 0.914062 31.058594 Z M 0.914062 0.582031 " fill-opacity="1" fill-rule="nonzero"/></g></g></g></g></g></g><g transform="matrix(1, 0, 0, 1, 330, 561)"><g clip-path="url(#fe215ef730)"><g fill="#ffffff" fill-opacity="1"><g transform="translate(0.52672, 76.58614)"><g><path d="M 28.796875 -59.109375 L 41.15625 -59.109375 L 41.15625 -17.890625 C 41.15625 -14.078125 40.300781 -10.769531 38.59375 -7.96875 C 36.894531 -5.175781 34.535156 -3.015625 31.515625 -1.484375 C 28.492188 0.046875 24.984375 0.8125 20.984375 0.8125 C 17.421875 0.8125 14.191406 0.175781 11.296875 -1.09375 C 8.398438 -2.363281 6.101562 -4.285156 4.40625 -6.859375 C 2.71875 -9.441406 1.882812 -12.695312 1.90625 -16.625 L 14.34375 -16.625 C 14.382812 -14.28125 15.0625 -12.457031 16.375 -11.15625 C 17.695312 -9.851562 19.441406 -9.203125 21.609375 -9.203125 C 26.367188 -9.203125 28.765625 -12.097656 28.796875 -17.890625 Z M 28.796875 -59.109375 "/></g></g></g><g fill="#ffffff" fill-opacity="1"><g transform="translate(46.845862, 76.58614)"><g><path d="M 15.328125 0 L 1.9375 0 L 22.34375 -59.109375 L 38.4375 -59.109375 L 58.8125 0 L 45.421875 0 L 41.03125 -13.484375 L 19.703125 -13.484375 Z M 22.890625 -23.234375 L 37.890625 -23.234375 L 30.625 -45.59375 L 30.15625 -45.59375 Z M 22.890625 -23.234375 "/></g></g></g><g fill="#ffffff" fill-opacity="1"><g transform="translate(107.623507, 76.58614)"><g><path d="M 26.09375 0 L 5.140625 0 L 5.140625 -59.109375 L 26.265625 -59.109375 C 32.203125 -59.109375 37.320312 -57.925781 41.625 -55.5625 C 45.925781 -53.207031 49.226562 -49.828125 51.53125 -45.421875 C 53.84375 -41.015625 55 -35.742188 55 -29.609375 C 55 -23.453125 53.835938 -18.160156 51.515625 -13.734375 C 49.203125 -9.304688 45.882812 -5.910156 41.5625 -3.546875 C 37.25 -1.179688 32.09375 0 26.09375 0 Z M 17.625 -10.703125 L 25.5625 -10.703125 C 31.125 -10.703125 35.34375 -12.203125 38.21875 -15.203125 C 41.09375 -18.203125 42.53125 -23.003906 42.53125 -29.609375 C 42.53125 -36.171875 41.09375 -40.941406 38.21875 -43.921875 C 35.34375 -46.898438 31.132812 -48.390625 25.59375 -48.390625 L 17.625 -48.390625 Z M 17.625 -10.703125 "/></g></g></g><g fill="#ffffff" fill-opacity="1"><g transform="translate(166.73895, 76.58614)"><g/></g></g><g fill="#ffffff" fill-opacity="1"><g transform="translate(189.595498, 76.58614)"><g><path d="M 39.484375 -44.328125 C 39.128906 -47.253906 37.722656 -49.523438 35.265625 -51.140625 C 32.804688 -52.753906 29.785156 -53.5625 26.203125 -53.5625 C 22.273438 -53.5625 19.117188 -52.628906 16.734375 -50.765625 C 14.347656 -48.910156 13.15625 -46.570312 13.15625 -43.75 C 13.15625 -41.632812 13.804688 -39.925781 15.109375 -38.625 C 16.410156 -37.320312 17.945312 -36.3125 19.71875 -35.59375 C 21.5 -34.875 23.125 -34.320312 24.59375 -33.9375 L 30.59375 -32.328125 C 32.132812 -31.921875 33.847656 -31.359375 35.734375 -30.640625 C 37.628906 -29.929688 39.445312 -28.96875 41.1875 -27.75 C 42.9375 -26.53125 44.378906 -24.96875 45.515625 -23.0625 C 46.648438 -21.15625 47.21875 -18.816406 47.21875 -16.046875 C 47.21875 -12.847656 46.382812 -9.957031 44.71875 -7.375 C 43.050781 -4.800781 40.625 -2.753906 37.4375 -1.234375 C 34.257812 0.273438 30.398438 1.03125 25.859375 1.03125 C 19.503906 1.03125 14.460938 -0.46875 10.734375 -3.46875 C 7.003906 -6.46875 4.96875 -10.390625 4.625 -15.234375 L 12 -15.234375 C 12.195312 -13.003906 12.953125 -11.160156 14.265625 -9.703125 C 15.585938 -8.253906 17.265625 -7.175781 19.296875 -6.46875 C 21.328125 -5.769531 23.515625 -5.421875 25.859375 -5.421875 C 28.585938 -5.421875 31.039062 -5.867188 33.21875 -6.765625 C 35.394531 -7.660156 37.113281 -8.910156 38.375 -10.515625 C 39.644531 -12.117188 40.28125 -14 40.28125 -16.15625 C 40.28125 -18.125 39.734375 -19.722656 38.640625 -20.953125 C 37.546875 -22.179688 36.101562 -23.179688 34.3125 -23.953125 C 32.519531 -24.722656 30.585938 -25.394531 28.515625 -25.96875 L 21.234375 -28.046875 C 16.617188 -29.378906 12.960938 -31.273438 10.265625 -33.734375 C 7.578125 -36.191406 6.234375 -39.414062 6.234375 -43.40625 C 6.234375 -46.707031 7.128906 -49.59375 8.921875 -52.0625 C 10.722656 -54.539062 13.148438 -56.46875 16.203125 -57.84375 C 19.253906 -59.21875 22.664062 -59.90625 26.4375 -59.90625 C 30.238281 -59.90625 33.617188 -59.226562 36.578125 -57.875 C 39.546875 -56.519531 41.898438 -54.664062 43.640625 -52.3125 C 45.390625 -49.96875 46.3125 -47.304688 46.40625 -44.328125 Z M 39.484375 -44.328125 "/></g></g></g><g fill="#ffffff" fill-opacity="1"><g transform="translate(241.426765, 76.58614)"><g><path d="M 10.390625 17.203125 C 9.234375 17.203125 8.203125 17.109375 7.296875 16.921875 C 6.390625 16.742188 5.765625 16.566406 5.421875 16.390625 L 7.15625 10.390625 C 9.632812 11.023438 11.707031 11.007812 13.375 10.34375 C 15.039062 9.675781 16.46875 7.691406 17.65625 4.390625 L 19.15625 0.234375 L 2.765625 -44.328125 L 10.15625 -44.328125 L 22.390625 -9 L 22.859375 -9 L 35.09375 -44.328125 L 42.484375 -44.328125 L 23.4375 7.15625 C 20.9375 13.851562 16.585938 17.203125 10.390625 17.203125 Z M 10.390625 17.203125 "/></g></g></g><g fill="#ffffff" fill-opacity="1"><g transform="translate(286.678126, 76.58614)"><g><path d="M 13.046875 -26.671875 L 13.046875 0 L 6.234375 0 L 6.234375 -44.328125 L 12.8125 -44.328125 L 12.8125 -37.40625 L 13.390625 -37.40625 C 14.429688 -39.65625 16.007812 -41.46875 18.125 -42.84375 C 20.238281 -44.21875 22.96875 -44.90625 26.3125 -44.90625 C 30.800781 -44.90625 34.425781 -43.53125 37.1875 -40.78125 C 39.945312 -38.03125 41.328125 -33.828125 41.328125 -28.171875 L 41.328125 0 L 34.515625 0 L 34.515625 -27.703125 C 34.515625 -31.179688 33.609375 -33.894531 31.796875 -35.84375 C 29.992188 -37.800781 27.515625 -38.78125 24.359375 -38.78125 C 21.109375 -38.78125 18.410156 -37.726562 16.265625 -35.625 C 14.117188 -33.519531 13.046875 -30.535156 13.046875 -26.671875 Z M 13.046875 -26.671875 "/></g></g></g><g fill="#ffffff" fill-opacity="1"><g transform="translate(334.238241, 76.58614)"><g><path d="M 43.28125 16.625 L 43.28125 -44.328125 L 36.703125 -44.328125 L 36.703125 -37.28125 L 35.890625 -37.28125 C 35.390625 -38.050781 34.691406 -39.035156 33.796875 -40.234375 C 32.898438 -41.441406 31.609375 -42.519531 29.921875 -43.46875 C 28.242188 -44.425781 25.960938 -44.90625 23.078125 -44.90625 C 19.347656 -44.90625 16.054688 -43.972656 13.203125 -42.109375 C 10.359375 -40.242188 8.140625 -37.597656 6.546875 -34.171875 C 4.953125 -30.742188 4.15625 -26.703125 4.15625 -22.046875 C 4.15625 -17.347656 4.953125 -13.28125 6.546875 -9.84375 C 8.140625 -6.414062 10.347656 -3.765625 13.171875 -1.890625 C 16.003906 -0.015625 19.269531 0.921875 22.96875 0.921875 C 25.8125 0.921875 28.085938 0.445312 29.796875 -0.5 C 31.515625 -1.457031 32.832031 -2.546875 33.75 -3.765625 C 34.675781 -4.984375 35.390625 -6 35.890625 -6.8125 L 36.46875 -6.8125 L 36.46875 16.625 Z M 36.59375 -22.15625 C 36.59375 -17.132812 35.5 -13.050781 33.3125 -9.90625 C 31.125 -6.757812 27.984375 -5.1875 23.890625 -5.1875 C 21.046875 -5.1875 18.664062 -5.941406 16.75 -7.453125 C 14.832031 -8.960938 13.382812 -11.003906 12.40625 -13.578125 C 11.4375 -16.148438 10.953125 -19.007812 10.953125 -22.15625 C 10.953125 -25.28125 11.425781 -28.097656 12.375 -30.609375 C 13.332031 -33.117188 14.769531 -35.109375 16.6875 -36.578125 C 18.601562 -38.046875 21.003906 -38.78125 23.890625 -38.78125 C 28.046875 -38.78125 31.203125 -37.25 33.359375 -34.1875 C 35.515625 -31.132812 36.59375 -27.125 36.59375 -22.15625 Z M 36.59375 -22.15625 "/></g></g></g></g></g></svg>